<?xml version="1.0" standalone="no"?>
<!DOCTYPE svg PUBLIC "-//W3C//DTD SVG 20010904//EN"
 "http://www.w3.org/TR/2001/REC-SVG-20010904/DTD/svg10.dtd">
<svg version="1.0" xmlns="http://www.w3.org/2000/svg"
 width="500.000000pt" height="500.000000pt" viewBox="0 0 500.000000 500.000000"
 preserveAspectRatio="xMidYMid meet">
<metadata>
Created by potrace 1.14, written by Peter Selinger 2001-2017
</metadata>
<g transform="translate(0.000000,500.000000) scale(0.100000,-0.100000)"
fill="#000000" stroke="none">
<path d="M2349 4266 c-2 -2 -33 -7 -69 -10 -161 -17 -370 -77 -537 -156 -250
-118 -493 -316 -652 -530 l-61 -81 42 -57 c23 -31 53 -71 67 -89 l25 -31 49
71 c216 315 535 537 907 631 52 13 120 27 150 31 30 4 66 9 80 11 37 5 271 5
300 -1 14 -2 48 -7 75 -10 82 -9 245 -53 346 -93 236 -93 429 -229 610 -429
39 -42 169 -226 169 -238 0 -4 8 -19 18 -33 10 -15 34 -63 54 -107 197 -439
185 -928 -34 -1360 -39 -79 -145 -238 -197 -296 l-41 -47 58 -20 c31 -11 78
-26 104 -34 l47 -15 30 31 c66 70 190 281 253 431 45 109 92 282 112 420 15
105 18 363 5 450 -5 33 -12 76 -14 95 -10 64 -43 195 -71 275 -85 252 -230
481 -424 676 -235 235 -511 390 -835 468 -66 16 -140 32 -165 36 -54 7 -394
17 -401 11z"/>
<path d="M844 3960 c-229 -62 -289 -261 -159 -522 136 -271 519 -692 1000
-1098 55 -47 102 -87 105 -90 3 -3 68 -55 145 -116 706 -559 1373 -951 1825
-1072 77 -20 119 -25 225 -26 151 -1 211 17 287 84 80 70 133 207 122 317 -8
90 -96 137 -180 97 -42 -20 -61 -54 -68 -120 -11 -111 -43 -135 -174 -130 -99
5 -113 7 -222 42 -642 202 -1805 1027 -2506 1775 -201 215 -366 463 -378 569
-5 42 17 51 137 60 92 6 100 8 129 37 61 62 42 166 -38 199 -46 19 -169 17
-250 -6z"/>
<path d="M2040 3592 c-192 -19 -348 -125 -437 -298 -53 -103 -66 -146 -79
-254 -3 -25 -7 -57 -9 -73 -2 -20 4 -35 25 -55 69 -68 142 -135 230 -212 52
-46 100 -88 106 -94 20 -20 213 -177 339 -276 l69 -55 513 0 513 0 0 235 0
235 -593 0 -592 0 -37 23 c-125 77 -96 324 42 359 19 5 293 9 608 8 l572 0 0
230 0 230 -622 0 c-343 0 -634 -1 -648 -3z"/>
<path d="M801 2995 c-52 -168 -70 -312 -66 -530 5 -279 51 -481 167 -724 43
-90 139 -257 157 -271 3 -3 26 -32 50 -64 105 -141 296 -311 466 -415 205
-126 440 -210 690 -246 85 -13 403 -14 465 -2 14 3 54 10 90 16 147 25 319 82
465 156 104 52 225 125 225 136 0 4 -12 10 -26 13 -14 4 -64 24 -111 45 l-85
39 -112 -54 c-61 -29 -145 -64 -187 -78 -715 -231 -1482 68 -1854 724 -89 156
-161 377 -185 566 -10 79 -14 286 -6 334 2 14 7 48 10 75 10 76 17 116 25 139
7 16 -6 38 -68 113 -42 50 -79 92 -83 92 -4 1 -16 -28 -27 -64z"/>
<path d="M1541 2293 c-14 -53 -27 -160 -26 -213 7 -322 176 -570 435 -636 53
-13 126 -16 437 -16 206 0 377 2 380 6 3 3 -3 9 -13 12 -27 10 -351 227 -501
336 -130 94 -384 286 -393 298 -3 3 -14 13 -26 21 -11 8 -45 34 -74 59 -29 25
-83 70 -119 101 -91 76 -89 75 -100 32z"/>
<path d="M2835 1890 c8 -12 232 -151 368 -228 l107 -61 0 149 0 148 -240 0
c-137 0 -238 -3 -235 -8z"/>
</g>
</svg>
